<svg width="100%" height="100%" viewBox="0 0 271 25" fill="none" xmlns="http://www.w3.org/2000/svg">
<path d="M23.1048 1.64V1.51147H15.9261V1.64C18.009 1.96132 19.4531 2.6342 17.6877 4.74735L12.4332 11.1246L7.6285 4.42981L5.86314 1.51147H0.480089V1.64C1.53855 1.83279 2.563 2.60018 3.87852 4.42981L10.4145 13.5628L4.58164 20.6735C2.85407 22.7564 1.76159 23.4293 0 23.8148V23.9434H7.17866V23.8148C5.09575 23.4935 3.65548 22.8206 5.41707 20.7075L10.8304 14.1374L15.3818 20.4845L17.4949 23.9434H22.6889V23.8148C21.6002 23.5275 20.4132 22.2763 19.1317 20.4845L12.8188 11.703L18.5231 4.78137C20.2507 2.69847 21.3432 2.02559 23.1048 1.64Z" fill="#FAFAFA"/>
<path d="M35.4683 1.51123H24.0596V1.67378C25.3751 1.83255 26.494 2.18411 26.494 3.33708V22.1173C26.494 23.2702 25.3751 23.6218 24.0596 23.7843V23.9431H32.1984V23.7843C30.8867 23.6218 29.7639 23.2702 29.7639 22.1173V15.706H33.994C40.0197 15.706 43.9285 12.5041 43.9285 7.85824C43.9285 3.59414 40.6283 1.51123 35.4683 1.51123ZM34.7614 15.1314C33.2569 15.1314 31.5255 14.9084 29.7639 14.4245V2.02534H33.771C39.7929 2.02534 40.7228 5.61278 40.7228 9.07547C40.7228 13.9444 38.9272 15.1314 34.7614 15.1314Z" fill="#FAFAFA"/>
<path d="M62.7063 19.713L58.7332 14.33C62.676 13.3698 65.0765 10.7426 65.0765 7.40839C65.0765 3.46561 61.7763 1.51123 56.6201 1.51123H45.3701V1.67378C46.6856 1.83255 47.8046 2.18411 47.8046 3.33708V22.1173C47.8046 23.2702 46.6856 23.6218 45.3701 23.7843V23.9431H53.509V23.7843C52.1972 23.6218 51.0745 23.2702 51.0745 22.1173V14.7458H55.4331L61.6818 23.3988V23.9431H67.4807V23.8486C65.8136 23.0132 64.5964 22.3101 62.7063 19.713ZM51.0745 13.4643V2.08961H54.8887C60.9106 2.08961 61.8746 5.38975 61.8746 8.59538C61.8746 13.0485 60.079 14.1712 56.106 14.1712C54.3746 14.1712 52.7718 13.9444 51.0745 13.4643Z" fill="#FAFAFA"/>
<path d="M86.8931 17.6939C84.3944 21.4099 82.9201 23.4285 79.3629 23.4285H73.3372V12.9837H77.8243C81.219 12.9837 82.1829 13.8494 82.9503 16.2196V9.23375C82.1829 11.604 81.219 12.4696 77.8243 12.4696H73.3372V2.02485H78.7202C82.2774 2.02485 83.5929 3.62767 85.7401 6.67076L85.8649 6.60649L84.8102 1.51074H67.6328V1.67329C68.9483 1.83206 70.0673 2.18362 70.0673 3.33659V21.4741C70.0673 22.6271 68.9483 23.3 67.6328 23.7839V23.9426H84.1675L85.2562 24.6458L85.449 23.9426L87.0216 17.7582L86.8931 17.6939Z" fill="#FAFAFA"/>
<path d="M98.4927 11.1577C95.1245 10.3865 92.0171 9.2978 92.0171 5.64609C92.0171 3.4649 93.1058 1.60881 96.1527 1.60881C99.7401 1.60881 103.04 4.1718 102.53 8.49638L105.38 3.97901C103.683 2.34595 101.248 1.06445 97.593 1.06445C92.5615 1.06445 89.4239 3.49892 89.4239 7.21489C89.4239 9.81191 90.9284 12.8247 96.9844 14.265C100.799 15.1609 103.233 16.0266 103.233 19.2625C103.233 21.3454 102.239 23.8139 98.5531 23.8139C94.7427 23.8139 91.0872 21.2509 91.5711 16.9263L88.7812 21.3794C90.5126 23.0465 93.3969 24.3923 97.1469 24.3923C102.783 24.3923 105.766 21.3151 105.766 17.6937C105.766 15.452 104.643 12.5677 98.4927 11.1577Z" fill="#FAFAFA"/>
<path d="M118.037 11.1586C114.668 10.3875 111.561 9.29877 111.561 5.64707C111.561 3.46588 112.65 1.60978 115.697 1.60978C119.284 1.60978 122.584 4.17278 122.074 8.49736L124.924 3.97999C123.227 2.34693 120.792 1.06543 117.137 1.06543C112.105 1.06543 108.968 3.4999 108.968 7.21586C108.968 9.81288 110.472 12.8257 116.528 14.266C120.343 15.1619 122.777 16.0276 122.777 19.2635C122.777 21.3464 121.783 23.8149 118.097 23.8149C114.287 23.8149 110.631 21.2519 111.115 16.9273L108.325 21.3804C110.057 23.0475 112.941 24.3932 116.691 24.3932C122.327 24.3932 125.31 21.3161 125.31 17.6947C125.31 15.453 124.187 12.5687 118.037 11.1586Z" fill="#FAFAFA"/>
<path d="M147.222 10.9666C149.305 10.3579 151.547 8.46783 151.547 5.9691C151.547 2.66518 147.638 1.51221 142.448 1.51221H133.474V1.67476C134.789 1.83353 135.908 2.18509 135.908 3.33806V21.4756C135.908 22.6286 134.789 23.3015 133.474 23.7853V23.9441H143.729C149.751 23.9441 153.664 20.7385 153.664 16.5424C153.664 13.2082 151.226 11.4164 147.222 10.9666ZM142.641 2.02632C146.807 2.02632 148.375 4.33226 148.375 7.37534C148.375 10.3239 146.901 10.8683 145.17 10.8683H139.178V2.02632H142.641ZM144.467 23.3657C142.928 23.3657 141.004 23.1427 139.178 22.6626V11.4164H143.631C149.657 11.4164 150.424 14.6523 150.424 17.6651C150.424 22.2468 148.632 23.3657 144.467 23.3657Z" fill="#FAFAFA"/>
<path d="M174.674 17.6939C172.176 21.4099 170.701 23.4285 167.144 23.4285H161.118V12.9837H165.606C169 12.9837 169.964 13.8494 170.732 16.2196V9.23375C169.964 11.604 169 12.4696 165.606 12.4696H161.118V2.02485H166.501C170.059 2.02485 171.374 3.62767 173.521 6.67076L173.646 6.60649L172.591 1.51074H155.414V1.67329C156.73 1.83206 157.849 2.18362 157.849 3.33659V21.4741C157.849 22.6271 156.73 23.3 155.414 23.7839V23.9426H171.949L173.037 24.6458L173.23 23.9426L174.803 17.7582L174.674 17.6939Z" fill="#FAFAFA"/>
<path d="M197.235 19.9055L190.472 2.82646C189.799 1.15937 189.769 0.902319 189.769 0.645264L186.786 2.59964L186.276 2.95498L186.337 3.65811L179.226 20.0643C178.039 22.8201 177.272 23.4287 175.926 23.8143V23.9428H181.819V23.8143C180.027 23.4287 178.742 22.8541 179.929 20.0983L180.636 18.4955H193.164L193.806 20.0983C194.925 22.9184 193.644 23.6215 191.402 23.8143V23.9428H200.407V23.8143C198.963 23.6215 198.388 22.8541 197.235 19.9055ZM180.859 17.9171L187.138 3.43507L192.941 17.9171H180.859Z" fill="#FAFAFA"/>
<path d="M212.64 24.3925C217.222 24.3925 221.036 21.4741 221.036 15.388V6.57625C221.036 2.21764 222.155 1.8623 223.47 1.70353V1.54476H217.607V1.70353C219.24 1.8623 220.363 2.8565 220.363 7.21511V15.9323C220.363 21.4099 216.292 23.3983 213.63 23.3983C211.166 23.3983 207.223 21.701 207.223 15.9966V3.33659C207.223 2.18362 208.346 1.83206 209.657 1.67329V1.51074H201.519V1.67329C202.834 1.83206 203.953 2.18362 203.953 3.33659V15.4522C203.953 22.8199 209.37 24.3925 212.64 24.3925Z" fill="#FAFAFA"/>
<path d="M245.73 1.51025H225.32L224.262 8.11054H224.39C226.246 3.75571 227.592 1.99034 232.465 1.99034H233.202V21.795C233.202 23.2693 232.079 23.6208 230.125 23.7834V23.9421H239.545V23.7834C237.591 23.6208 236.468 23.2693 236.468 21.795V1.99034H238.808C242.108 1.99034 243.968 3.75571 243.552 8.11054H243.681L245.73 1.51025Z" fill="#FAFAFA"/>
<path d="M263.16 1.51074V1.63927C265.243 1.96059 266.426 2.4747 264.986 4.74662L259.312 13.6566L253.672 4.42908L251.944 1.51074H246.527V1.63927C247.586 1.83206 248.773 2.56921 249.926 4.42908L256.428 14.9079V22.1168C256.428 23.2697 255.309 23.6213 253.672 23.7839V23.9426H262.453V23.7839C260.82 23.6213 259.698 23.2697 259.698 22.1168V14.2652L265.788 4.78064C267.228 2.53518 268.479 2.02485 270.241 1.63927V1.51074H263.16Z" fill="#FAFAFA"/>
</svg>
